<?xml version="1.0" encoding="UTF-8" standalone="no"?>
<svg
   xmlns:dc="http://purl.org/dc/elements/1.1/"
   xmlns:cc="http://creativecommons.org/ns#"
   xmlns:rdf="http://www.w3.org/1999/02/22-rdf-syntax-ns#"
   xmlns:svg="http://www.w3.org/2000/svg"
   xmlns="http://www.w3.org/2000/svg"
   xmlns:sodipodi="http://sodipodi.sourceforge.net/DTD/sodipodi-0.dtd"
   xmlns:inkscape="http://www.inkscape.org/namespaces/inkscape"
   width="737.01pt"
   height="382.68pt"
   viewBox="0 0 737.01 382.68"
   version="1.1"
   id="svg294"
   sodipodi:docname="Figure1_combined.svg"
   inkscape:version="0.92.3 (2405546, 2018-03-11)"
   inkscape:export-filename="C:\Users\liliv\Dropbox\0 Boston Uni\Buston Lab\Experiments\Karadimitriou - Group Dynamics\Manuscript Dataset\Figures\Figure1_combined_c1.png"
   inkscape:export-xdpi="300"
   inkscape:export-ydpi="300">
  <metadata
     id="metadata300">
    <rdf:RDF>
      <cc:Work
         rdf:about="">
        <dc:format>image/svg+xml</dc:format>
        <dc:type
           rdf:resource="http://purl.org/dc/dcmitype/StillImage" />
      </cc:Work>
    </rdf:RDF>
  </metadata>
  <defs
     id="defs298" />
  <sodipodi:namedview
     pagecolor="#ffffff"
     bordercolor="#666666"
     borderopacity="1"
     objecttolerance="10"
     gridtolerance="10"
     guidetolerance="10"
     inkscape:pageopacity="0"
     inkscape:pageshadow="2"
     inkscape:window-width="2560"
     inkscape:window-height="1476"
     id="namedview296"
     showgrid="false"
     inkscape:zoom="0.92505489"
     inkscape:cx="480.5577"
     inkscape:cy="72.208303"
     inkscape:window-x="-12"
     inkscape:window-y="-12"
     inkscape:window-maximized="1"
     inkscape:current-layer="g292" />
  <g
     class="svglite"
     id="g292">
    <defs
       id="defs4">
      <style
         type="text/css"
         id="style2"><![CDATA[
    .svglite line, .svglite polyline, .svglite polygon, .svglite path, .svglite rect, .svglite circle {
      fill: none;
      stroke: #000000;
      stroke-linecap: round;
      stroke-linejoin: round;
      stroke-miterlimit: 10.00;
    }
    .svglite text {
      white-space: pre;
    }
    .svglite g.glyphgroup path {
      fill: inherit;
      stroke: none;
    }
  ]]></style>
    </defs>
    <rect
       width="100%"
       height="100%"
       style="stroke: none; fill: #FFFFFF;"
       id="rect6" />
    <defs
       id="defs11">
      <clipPath
         id="cpMC4wMHw3MzcuMDF8MC4wMHwzODIuNjg=">
        <rect
           x="0.00"
           y="0.00"
           width="737.01"
           height="382.68"
           id="rect8" />
      </clipPath>
    </defs>
    <g
       clip-path="url(#cpMC4wMHw3MzcuMDF8MC4wMHwzODIuNjg=)"
       id="g15">
      <rect
         x="0.00000000000013"
         y="0.00"
         width="737.01"
         height="382.68"
         style="stroke-width: 1.07; stroke: #FFFFFF; fill: #FFFFFF;"
         id="rect13" />
    </g>
    <defs
       id="defs20">
      <clipPath
         id="cpNDQuNzZ8NzIxLjU3fDI5Ljk3fDMxOS42NA==">
        <rect
           x="44.76"
           y="29.97"
           width="676.81"
           height="289.67"
           id="rect17" />
      </clipPath>
    </defs>
    <g
       clip-path="url(#cpNDQuNzZ8NzIxLjU3fDI5Ljk3fDMxOS42NA==)"
       id="g22" />
    <g
       clip-path="url(#cpMC4wMHw3MzcuMDF8MC4wMHwzODIuNjg=)"
       id="g24" />
    <defs
       id="defs29">
      <clipPath
         id="cpNS40OHwzNzUuMjd8NS40OHwzNzcuMjA=">
        <rect
           x="5.48"
           y="5.48"
           width="369.79"
           height="371.72"
           id="rect26" />
      </clipPath>
    </defs>
    <g
       clip-path="url(#cpNS40OHwzNzUuMjd8NS40OHwzNzcuMjA=)"
       id="g33">
      <rect
         x="5.48"
         y="5.48"
         width="369.79"
         height="371.72"
         style="stroke-width: 1.16; stroke: #FFFFFF; fill: #FFFFFF;"
         id="rect31" />
    </g>
    <g
       clip-path="url(#cpMC4wMHw3MzcuMDF8MC4wMHwzODIuNjg=)"
       id="g35" />
    <defs
       id="defs40">
      <clipPath
         id="cpMzc1LjI3fDczMS41M3w1LjQ4fDM3Ny4yMA==">
        <rect
           x="375.27"
           y="5.48"
           width="356.26"
           height="371.72"
           id="rect37" />
      </clipPath>
    </defs>
    <g
       clip-path="url(#cpMzc1LjI3fDczMS41M3w1LjQ4fDM3Ny4yMA==)"
       id="g44">
      <rect
         x="375.27"
         y="5.48"
         width="356.26"
         height="371.72"
         style="stroke-width: 1.16; stroke: #FFFFFF; fill: #FFFFFF;"
         id="rect42" />
    </g>
    <g
       clip-path="url(#cpMC4wMHw3MzcuMDF8MC4wMHwzODIuNjg=)"
       id="g46" />
    <defs
       id="defs51">
      <clipPath
         id="cpNDQuNzZ8MzY1LjMxfDI5Ljk3fDMxOS42NA==">
        <rect
           x="44.76"
           y="29.97"
           width="320.55"
           height="289.67"
           id="rect48" />
      </clipPath>
    </defs>
    <g
       clip-path="url(#cpNDQuNzZ8MzY1LjMxfDI5Ljk3fDMxOS42NA==)"
       id="g91">
      <rect
         x="44.76"
         y="29.97"
         width="320.55"
         height="289.67"
         style="stroke-width: 1.16; stroke: none; fill: #FFFFFF;"
         id="rect53" />
      <polyline
         points="63.61,292.54 64.22,291.70 64.82,290.86 65.43,290.02 66.03,289.19 66.64,288.36 67.24,287.53 67.85,286.70 68.45,285.87 69.05,285.04 69.66,284.22 70.26,283.40 70.87,282.58 71.47,281.76 72.08,280.94 72.68,280.13 73.29,279.32 73.89,278.51 74.50,277.70 75.10,276.89 75.70,276.08 76.31,275.28 76.91,274.48 77.52,273.68 78.12,272.88 78.73,272.08 79.33,271.29 79.94,270.50 80.54,269.71 81.15,268.92 81.75,268.13 82.36,267.34 82.96,266.56 83.56,265.78 84.17,265.00 84.77,264.22 85.38,263.44 85.98,262.67 86.59,261.89 87.19,261.12 87.80,260.35 88.40,259.59 89.01,258.82 89.61,258.06 90.22,257.29 90.82,256.53 91.42,255.78 92.03,255.02 92.63,254.26 93.24,253.51 93.84,252.76 94.45,252.01 95.05,251.26 95.66,250.52 96.26,249.77 96.87,249.03 97.47,248.29 98.07,247.55 98.68,246.81 99.28,246.08 99.89,245.35 100.49,244.61 101.10,243.89 101.70,243.16 102.31,242.43 102.91,241.71 103.52,240.99 104.12,240.26 104.73,239.55 105.33,238.83 105.93,238.11 106.54,237.40 107.14,236.69 107.75,235.98 108.35,235.27 108.96,234.57 109.56,233.86 110.17,233.16 110.77,232.46 111.38,231.76 111.98,231.06 112.59,230.37 113.19,229.67 113.79,228.98 114.40,228.29 115.00,227.60 115.61,226.92 116.21,226.23 116.82,225.55 117.42,224.87 118.03,224.19 118.63,223.51 119.24,222.84 119.84,222.17 120.44,221.49 121.05,220.82 121.65,220.16 122.26,219.49 122.86,218.82 123.47,218.16 124.07,217.50 124.68,216.84 125.28,216.19 125.89,215.53 126.49,214.88 127.10,214.22 127.70,213.57 128.30,212.93 128.91,212.28 129.51,211.63 130.12,210.99 130.72,210.35 131.33,209.71 131.93,209.07 132.54,208.44 133.14,207.81 133.75,207.17 134.35,206.54 134.96,205.92 135.56,205.29 136.16,204.66 136.77,204.04 137.37,203.42 137.98,202.80 138.58,202.18 139.19,201.57 139.79,200.95 140.40,200.34 141.00,199.73 141.61,199.12 142.21,198.52 142.81,197.91 143.42,197.31 144.02,196.71 144.63,196.11 145.23,195.51 145.84,194.91 146.44,194.32 147.05,193.73 147.65,193.14 148.26,192.55 148.86,191.96 149.47,191.38 150.07,190.79 150.67,190.21 151.28,189.63 151.88,189.06 152.49,188.48 153.09,187.91 153.70,187.33 154.30,186.76 154.91,186.20 155.51,185.63 156.12,185.06 156.72,184.50 157.33,183.94 157.93,183.38 158.53,182.82 159.14,182.27 159.74,181.71 160.35,181.16 160.95,180.61 161.56,180.06 162.16,179.51 162.77,178.97 163.37,178.42 163.98,177.88 164.58,177.34 165.18,176.80 165.79,176.27 166.39,175.73 167.00,175.20 167.60,174.67 168.21,174.14 168.81,173.62 169.42,173.09 170.02,172.57 170.63,172.05 171.23,171.53 171.84,171.01 172.44,170.49 173.04,169.98 173.65,169.46 174.25,168.95 174.86,168.44 175.46,167.94 176.07,167.43 176.67,166.93 177.28,166.43 177.88,165.93 178.49,165.43 179.09,164.93 179.70,164.44 180.30,163.95 180.90,163.45 181.51,162.97 182.11,162.48 182.72,161.99 183.32,161.51 183.93,161.03 184.53,160.55 185.14,160.07 185.74,159.59 186.35,159.12 186.95,158.64 187.55,158.17 188.16,157.70 188.76,157.24 189.37,156.77 189.97,156.31 190.58,155.85 191.18,155.39 191.79,154.93 192.39,154.47 193.00,154.02 193.60,153.56 194.21,153.11 194.81,152.66 195.41,152.22 196.02,151.77 196.62,151.33 197.23,150.88 197.83,150.44 198.44,150.01 199.04,149.57 199.65,149.13 200.25,148.70 200.86,148.27 201.46,147.84 202.07,147.41 202.67,146.99 203.27,146.56 203.88,146.14 204.48,145.72 205.09,145.30 205.69,144.88 206.30,144.47 206.90,144.06 207.51,143.65 208.11,143.24 208.72,142.83 209.32,142.42 209.93,142.02 210.53,141.62 211.13,141.22 211.74,140.82 212.34,140.42 212.95,140.02 213.55,139.63 214.16,139.24 214.76,138.85 215.37,138.46 215.97,138.08 216.58,137.69 217.18,137.31 217.78,136.93 218.39,136.55 218.99,136.17 219.60,135.80 220.20,135.43 220.81,135.05 221.41,134.68 222.02,134.32 222.62,133.95 223.23,133.59 223.83,133.22 224.44,132.86 225.04,132.50 225.64,132.15 226.25,131.79 226.85,131.44 227.46,131.09 228.06,130.74 228.67,130.39 229.27,130.04 229.88,129.70 230.48,129.36 231.09,129.01 231.69,128.68 232.30,128.34 232.90,128.00 233.50,127.67 234.11,127.34 234.71,127.01 235.32,126.68 235.92,126.35 236.53,126.03 237.13,125.71 237.74,125.38 238.34,125.07 238.95,124.75 239.55,124.43 240.15,124.12 240.76,123.81 241.36,123.50 241.97,123.19 242.57,122.88 243.18,122.58 243.78,122.28 244.39,121.97 244.99,121.67 245.60,121.38 246.20,121.08 246.81,120.79 247.41,120.50 248.01,120.21 248.62,119.92 249.22,119.63 249.83,119.35 250.43,119.06 251.04,118.78 251.64,118.50 252.25,118.23 252.85,117.95 253.46,117.68 254.06,117.40 254.67,117.13 255.27,116.86 255.87,116.60 256.48,116.33 257.08,116.07 257.69,115.81 258.29,115.55 258.90,115.29 259.50,115.04 260.11,114.78 260.71,114.53 261.32,114.28 261.92,114.03 262.52,113.78 263.13,113.54 263.73,113.30 264.34,113.05 264.94,112.82 265.55,112.58 266.15,112.34 266.76,112.11 267.36,111.88 267.97,111.64 268.57,111.42 269.18,111.19 269.78,110.96 270.38,110.74 270.99,110.52 271.59,110.30 272.20,110.08 272.80,109.87 273.41,109.65 274.01,109.44 274.62,109.23 275.22,109.02 275.83,108.81 276.43,108.61 277.04,108.40 277.64,108.20 278.24,108.00 278.85,107.81 279.45,107.61 280.06,107.41 280.66,107.22 281.27,107.03 281.87,106.84 282.48,106.66 283.08,106.47 283.69,106.29 284.29,106.10 284.89,105.93 285.50,105.75 286.10,105.57 286.71,105.40 287.31,105.22 287.92,105.05 288.52,104.88 289.13,104.72 289.73,104.55 290.34,104.39 290.94,104.23 291.55,104.07 292.15,103.91 292.75,103.75 293.36,103.60 293.96,103.44 294.57,103.29 295.17,103.14 295.78,103.00 296.38,102.85 296.99,102.71 297.59,102.57 298.20,102.43 298.80,102.29 299.41,102.15 300.01,102.02 300.61,101.88 301.22,101.75 301.82,101.62 302.43,101.50 303.03,101.37 303.64,101.25 304.24,101.12 304.85,101.00 305.45,100.89 306.06,100.77 306.66,100.65 307.26,100.54 307.87,100.43 308.47,100.32 309.08,100.21 309.68,100.11 310.29,100.00 310.89,99.90 311.50,99.80 312.10,99.70 312.71,99.61 313.31,99.51 313.92,99.42 314.52,99.33 315.12,99.24 315.73,99.15 316.33,99.06 316.94,98.98 317.54,98.90 318.15,98.82 318.75,98.74 319.36,98.66 319.96,98.59 320.57,98.51 321.17,98.44 321.78,98.37 322.38,98.31 322.98,98.24 323.59,98.18 324.19,98.11 324.80,98.05 325.40,97.99 326.01,97.94 326.61,97.88 327.22,97.83 327.82,97.78 328.43,97.73 329.03,97.68 329.63,97.63 330.24,97.59 330.84,97.55 331.45,97.51 332.05,97.47 332.66,97.43 333.26,97.39 333.87,97.36 334.47,97.33 335.08,97.30 335.68,97.27 336.29,97.25 336.89,97.22 337.49,97.20 338.10,97.18 338.70,97.16 339.31,97.14 339.91,97.13 340.52,97.11 341.12,97.10 341.73,97.09 342.33,97.08 342.94,97.08 343.54,97.07 344.15,97.07 344.75,97.07 345.35,97.07 345.96,97.07 346.56,97.08 347.17,97.08 347.77,97.09 348.38,97.10 348.98,97.11 349.59,97.13 350.19,97.14 350.80,97.16 351.40,97.18 352.00,97.20 352.61,97.22 353.21,97.25 353.82,97.27 354.42,97.30 355.03,97.33 355.63,97.36 356.24,97.40 356.84,97.43 357.45,97.47 358.05,97.51 358.66,97.55 359.26,97.59 359.86,97.64 360.47,97.68 361.07,97.73 361.68,97.78 362.28,97.83 362.89,97.88 363.49,97.94 364.10,98.00 364.70,98.06 365.31,98.12 "
         style="stroke-width: 1.71; stroke: #262626; stroke-linecap: butt;"
         id="polyline55" />
      <line
         x1="233.32"
         y1="107.29"
         x2="233.32"
         y2="127.77"
         style="stroke-width: 1.07; stroke: #D55E00; stroke-dasharray: 1.42,4.27; stroke-linecap: butt;"
         id="line57" />
      <line
         x1="327.59"
         y1="107.29"
         x2="327.59"
         y2="97.80"
         style="stroke-width: 1.07; stroke: #D55E00; stroke-dasharray: 1.42,4.27; stroke-linecap: butt;"
         id="line59" />
      <line
         x1="280.45"
         y1="107.29"
         x2="280.45"
         y2="62.72"
         style="stroke-width: 1.28; stroke: #009E73; stroke-linecap: butt;"
         id="line61" />
      <polygon
         points="282.59,68.58 280.45,62.72 278.32,68.58 "
         style="stroke-width: 1.28; stroke: #009E73; stroke-linecap: butt; fill: #009E73;"
         id="polygon63" />
      <line
         x1="280.45"
         y1="107.29"
         x2="280.45"
         y2="151.85"
         style="stroke-width: 1.28; stroke: #009E73; stroke-linecap: butt;"
         id="line65" />
      <polygon
         points="278.32,145.99 280.45,151.85 282.59,145.99 "
         style="stroke-width: 1.28; stroke: #009E73; stroke-linecap: butt; fill: #009E73;"
         id="polygon67" />
      <line
         x1="280.45"
         y1="107.29"
         x2="233.32"
         y2="107.29"
         style="stroke-width: 1.28; stroke: #D55E00; stroke-linecap: butt;"
         id="line69" />
      <polygon
         points="239.18,105.16 233.32,107.29 239.18,109.42 "
         style="stroke-width: 1.28; stroke: #D55E00; stroke-linecap: butt; fill: #D55E00;"
         id="polygon71" />
      <line
         x1="280.45"
         y1="107.29"
         x2="327.59"
         y2="107.29"
         style="stroke-width: 1.28; stroke: #D55E00; stroke-linecap: butt;"
         id="line73" />
      <polygon
         points="321.73,109.42 327.59,107.29 321.73,105.16 "
         style="stroke-width: 1.28; stroke: #D55E00; stroke-linecap: butt; fill: #D55E00;"
         id="polygon75" />
      <circle
         cx="280.45"
         cy="107.29"
         r="3.77"
         style="stroke-width: 1.13; stroke: #262626; fill: #FFFFFF;"
         id="circle77" />
      <text
         x="54.18"
         y="59.20"
         style="font-size: 12.00px; font-style: italic;fill: #595959; font-family: &quot;Times New Roman&quot;;"
         textLength="76.33px"
         lengthAdjust="spacingAndGlyphs"
         id="text79">High saturation</text>
      <text
         x="355.88"
         y="305.79"
         text-anchor="end"
         style="font-size: 12.00px; font-style: italic;fill: #595959; font-family: &quot;Times New Roman&quot;;"
         textLength="73.00px"
         lengthAdjust="spacingAndGlyphs"
         id="text81">Low saturation</text>
      <text
         x="299.31"
         y="57.78"
         style="font-size: 12.00px; font-weight: bold;fill: #009E73; font-family: &quot;Times New Roman&quot;;"
         textLength="42.66px"
         lengthAdjust="spacingAndGlyphs"
         id="text83">Eviction</text>
      <text
         x="299.31"
         y="161.77"
         style="font-size: 12.00px; font-weight: bold;fill: #009E73; font-family: &quot;Times New Roman&quot;;"
         textLength="64.66px"
         lengthAdjust="spacingAndGlyphs"
         id="text85">Recruitment</text>
      <text
         x="233.32"
         y="87.49"
         text-anchor="middle"
         style="font-size: 12.00px; font-weight: bold;fill: #D55E00; font-family: &quot;Times New Roman&quot;;"
         textLength="6.00px"
         lengthAdjust="spacingAndGlyphs"
         id="text87">?</text>
      <text
         x="327.59"
         y="138.00"
         text-anchor="middle"
         style="font-size: 12.00px; font-weight: bold;fill: #D55E00; font-family: &quot;Times New Roman&quot;;"
         textLength="6.00px"
         lengthAdjust="spacingAndGlyphs"
         id="text89">?</text>
    </g>
    <g
       clip-path="url(#cpMC4wMHw3MzcuMDF8MC4wMHwzODIuNjg=)"
       id="g157">
      <polyline
         points="44.76,319.64 44.76,29.97 "
         style="stroke-width: 0.85; stroke-linecap: square;"
         id="polyline93" />
      <text
         x="39.38"
         y="322.82"
         text-anchor="end"
         style="font-size: 9.60px; font-family: &quot;Times New Roman&quot;;"
         textLength="4.80px"
         lengthAdjust="spacingAndGlyphs"
         id="text95">0</text>
      <text
         x="39.38"
         y="278.25"
         text-anchor="end"
         style="font-size: 9.60px; font-family: &quot;Times New Roman&quot;;"
         textLength="9.59px"
         lengthAdjust="spacingAndGlyphs"
         id="text97">30</text>
      <text
         x="39.38"
         y="233.69"
         text-anchor="end"
         style="font-size: 9.60px; font-family: &quot;Times New Roman&quot;;"
         textLength="9.59px"
         lengthAdjust="spacingAndGlyphs"
         id="text99">60</text>
      <text
         x="39.38"
         y="189.12"
         text-anchor="end"
         style="font-size: 9.60px; font-family: &quot;Times New Roman&quot;;"
         textLength="9.59px"
         lengthAdjust="spacingAndGlyphs"
         id="text101">90</text>
      <text
         x="39.38"
         y="144.56"
         text-anchor="end"
         style="font-size: 9.60px; font-family: &quot;Times New Roman&quot;;"
         textLength="14.39px"
         lengthAdjust="spacingAndGlyphs"
         id="text103">120</text>
      <text
         x="39.38"
         y="99.99"
         text-anchor="end"
         style="font-size: 9.60px; font-family: &quot;Times New Roman&quot;;"
         textLength="14.39px"
         lengthAdjust="spacingAndGlyphs"
         id="text105">150</text>
      <text
         x="39.38"
         y="55.43"
         text-anchor="end"
         style="font-size: 9.60px; font-family: &quot;Times New Roman&quot;;"
         textLength="14.39px"
         lengthAdjust="spacingAndGlyphs"
         id="text107">180</text>
      <polyline
         points="41.77,319.64 44.76,319.64 "
         style="stroke-width: 0.85; stroke-linecap: butt;"
         id="polyline109" />
      <polyline
         points="41.77,275.08 44.76,275.08 "
         style="stroke-width: 0.85; stroke-linecap: butt;"
         id="polyline111" />
      <polyline
         points="41.77,230.51 44.76,230.51 "
         style="stroke-width: 0.85; stroke-linecap: butt;"
         id="polyline113" />
      <polyline
         points="41.77,185.95 44.76,185.95 "
         style="stroke-width: 0.85; stroke-linecap: butt;"
         id="polyline115" />
      <polyline
         points="41.77,141.38 44.76,141.38 "
         style="stroke-width: 0.85; stroke-linecap: butt;"
         id="polyline117" />
      <polyline
         points="41.77,96.82 44.76,96.82 "
         style="stroke-width: 0.85; stroke-linecap: butt;"
         id="polyline119" />
      <polyline
         points="41.77,52.25 44.76,52.25 "
         style="stroke-width: 0.85; stroke-linecap: butt;"
         id="polyline121" />
      <polyline
         points="44.76,319.64 365.31,319.64 "
         style="stroke-width: 0.85; stroke-linecap: square;"
         id="polyline123" />
      <polyline
         points="44.76,322.63 44.76,319.64 "
         style="stroke-width: 0.85; stroke-linecap: butt;"
         id="polyline125" />
      <polyline
         points="91.90,322.63 91.90,319.64 "
         style="stroke-width: 0.85; stroke-linecap: butt;"
         id="polyline127" />
      <polyline
         points="139.04,322.63 139.04,319.64 "
         style="stroke-width: 0.85; stroke-linecap: butt;"
         id="polyline129" />
      <polyline
         points="186.18,322.63 186.18,319.64 "
         style="stroke-width: 0.85; stroke-linecap: butt;"
         id="polyline131" />
      <polyline
         points="233.32,322.63 233.32,319.64 "
         style="stroke-width: 0.85; stroke-linecap: butt;"
         id="polyline133" />
      <polyline
         points="280.45,322.63 280.45,319.64 "
         style="stroke-width: 0.85; stroke-linecap: butt;"
         id="polyline135" />
      <polyline
         points="327.59,322.63 327.59,319.64 "
         style="stroke-width: 0.85; stroke-linecap: butt;"
         id="polyline137" />
      <text
         x="44.76"
         y="331.37"
         text-anchor="middle"
         style="font-size: 9.60px; font-family: &quot;Times New Roman&quot;;"
         textLength="4.80px"
         lengthAdjust="spacingAndGlyphs"
         id="text139">0</text>
      <text
         x="91.90"
         y="331.37"
         text-anchor="middle"
         style="font-size: 9.60px; font-family: &quot;Times New Roman&quot;;"
         textLength="9.59px"
         lengthAdjust="spacingAndGlyphs"
         id="text141">10</text>
      <text
         x="139.04"
         y="331.37"
         text-anchor="middle"
         style="font-size: 9.60px; font-family: &quot;Times New Roman&quot;;"
         textLength="9.59px"
         lengthAdjust="spacingAndGlyphs"
         id="text143">20</text>
      <text
         x="186.18"
         y="331.37"
         text-anchor="middle"
         style="font-size: 9.60px; font-family: &quot;Times New Roman&quot;;"
         textLength="9.59px"
         lengthAdjust="spacingAndGlyphs"
         id="text145">30</text>
      <text
         x="233.32"
         y="331.37"
         text-anchor="middle"
         style="font-size: 9.60px; font-family: &quot;Times New Roman&quot;;"
         textLength="9.59px"
         lengthAdjust="spacingAndGlyphs"
         id="text147">40</text>
      <text
         x="280.45"
         y="331.37"
         text-anchor="middle"
         style="font-size: 9.60px; font-family: &quot;Times New Roman&quot;;"
         textLength="9.59px"
         lengthAdjust="spacingAndGlyphs"
         id="text149">50</text>
      <text
         x="327.59"
         y="331.37"
         text-anchor="middle"
         style="font-size: 9.60px; font-family: &quot;Times New Roman&quot;;"
         textLength="9.59px"
         lengthAdjust="spacingAndGlyphs"
         id="text151">60</text>
      <text
         transform="translate(19.41,174.80) rotate(-90)"
         text-anchor="middle"
         style="font-size: 12.00px; font-family: &quot;Times New Roman&quot;;"
         textLength="165.20px"
         lengthAdjust="spacingAndGlyphs"
         id="text153">Group standard length, GSL (mm)</text>
      <text
         x="44.76"
         y="19.41"
         style="font-size: 12.00px; font-weight: bold; font-family: &quot;Times New Roman&quot;;"
         textLength="197.34px"
         lengthAdjust="spacingAndGlyphs"
         id="text155">A: <tspan
   style="-inkscape-font-specification:'Times New Roman, Normal';font-family:'Times New Roman';font-weight:normal;font-style:normal;font-stretch:normal;font-variant:normal;font-size:12.00000016px;text-anchor:start;text-align:start;writing-mode:lr;font-variant-ligatures:normal;font-variant-caps:normal;font-variant-numeric:normal;font-feature-settings:normal"
   id="tspan302">large, wild anemones (<tspan
   style="-inkscape-font-specification:'Times New Roman, Italic';font-family:'Times New Roman';font-weight:normal;font-style:italic;font-stretch:normal;font-variant:normal;font-size:12.00000016px;text-anchor:start;text-align:start;writing-mode:lr;font-variant-ligatures:normal;font-variant-caps:normal;font-variant-numeric:normal;font-feature-settings:normal"
   id="tspan304">Buston 2003</tspan>
)</tspan>
</text>
    </g>
    <defs
       id="defs162">
      <clipPath
         id="cpNDAxLjAyfDcyMS41N3wyOS45N3wzMTkuNjQ=">
        <rect
           x="401.02"
           y="29.97"
           width="320.55"
           height="289.67"
           id="rect159" />
      </clipPath>
    </defs>
    <g
       clip-path="url(#cpNDAxLjAyfDcyMS41N3wyOS45N3wzMTkuNjQ=)"
       id="g206">
      <rect
         x="401.02"
         y="29.97"
         width="320.55"
         height="289.67"
         style="stroke-width: 1.16; stroke: none; fill: #FFFFFF;"
         id="rect164" />
      <rect
         x="439.37"
         y="309.24"
         width="183.52"
         height="8.91"
         style="stroke-width: 1.16; stroke: none; stroke-linecap: butt; stroke-linejoin: miter; fill: #D55E00; fill-opacity: 0.30;"
         id="rect166" />
      <polyline
         points="419.87,292.54 420.48,291.70 421.08,290.86 421.69,290.02 422.29,289.19 422.90,288.36 423.50,287.53 424.10,286.70 424.71,285.87 425.31,285.04 425.92,284.22 426.52,283.40 427.13,282.58 427.73,281.76 428.34,280.94 428.94,280.13 429.55,279.32 430.15,278.51 430.76,277.70 431.36,276.89 431.96,276.08 432.57,275.28 433.17,274.48 433.78,273.68 434.38,272.88 434.99,272.08 435.59,271.29 436.20,270.50 436.80,269.71 437.41,268.92 438.01,268.13 438.62,267.34 439.22,266.56 439.82,265.78 440.43,265.00 441.03,264.22 441.64,263.44 442.24,262.67 442.85,261.89 443.45,261.12 444.06,260.35 444.66,259.59 445.27,258.82 445.87,258.06 446.47,257.29 447.08,256.53 447.68,255.78 448.29,255.02 448.89,254.26 449.50,253.51 450.10,252.76 450.71,252.01 451.31,251.26 451.92,250.52 452.52,249.77 453.13,249.03 453.73,248.29 454.33,247.55 454.94,246.81 455.54,246.08 456.15,245.35 456.75,244.61 457.36,243.89 457.96,243.16 458.57,242.43 459.17,241.71 459.78,240.99 460.38,240.26 460.99,239.55 461.59,238.83 462.19,238.11 462.80,237.40 463.40,236.69 464.01,235.98 464.61,235.27 465.22,234.57 465.82,233.86 466.43,233.16 467.03,232.46 467.64,231.76 468.24,231.06 468.84,230.37 469.45,229.67 470.05,228.98 470.66,228.29 471.26,227.60 471.87,226.92 472.47,226.23 473.08,225.55 473.68,224.87 474.29,224.19 474.89,223.51 475.50,222.84 476.10,222.17 476.70,221.49 477.31,220.82 477.91,220.16 478.52,219.49 479.12,218.82 479.73,218.16 480.33,217.50 480.94,216.84 481.54,216.19 482.15,215.53 482.75,214.88 483.36,214.22 483.96,213.57 484.56,212.93 485.17,212.28 485.77,211.63 486.38,210.99 486.98,210.35 487.59,209.71 488.19,209.07 488.80,208.44 489.40,207.81 490.01,207.17 490.61,206.54 491.21,205.92 491.82,205.29 492.42,204.66 493.03,204.04 493.63,203.42 494.24,202.80 494.84,202.18 495.45,201.57 496.05,200.95 496.66,200.34 497.26,199.73 497.87,199.12 498.47,198.52 499.07,197.91 499.68,197.31 500.28,196.71 500.89,196.11 501.49,195.51 502.10,194.91 502.70,194.32 503.31,193.73 503.91,193.14 504.52,192.55 505.12,191.96 505.73,191.38 506.33,190.79 506.93,190.21 507.54,189.63 508.14,189.06 508.75,188.48 509.35,187.91 509.96,187.33 510.56,186.76 511.17,186.20 511.77,185.63 512.38,185.06 512.98,184.50 513.58,183.94 514.19,183.38 514.79,182.82 515.40,182.27 516.00,181.71 516.61,181.16 517.21,180.61 517.82,180.06 518.42,179.51 519.03,178.97 519.63,178.42 520.24,177.88 520.84,177.34 521.44,176.80 522.05,176.27 522.65,175.73 523.26,175.20 523.86,174.67 524.47,174.14 525.07,173.62 525.68,173.09 526.28,172.57 526.89,172.05 527.49,171.53 528.10,171.01 528.70,170.49 529.30,169.98 529.91,169.46 530.51,168.95 531.12,168.44 531.72,167.94 532.33,167.43 532.93,166.93 533.54,166.43 534.14,165.93 534.75,165.43 535.35,164.93 535.95,164.44 536.56,163.95 537.16,163.45 537.77,162.97 538.37,162.48 538.98,161.99 539.58,161.51 540.19,161.03 540.79,160.55 541.40,160.07 542.00,159.59 542.61,159.12 543.21,158.64 543.81,158.17 544.42,157.70 545.02,157.24 545.63,156.77 546.23,156.31 546.84,155.85 547.44,155.39 548.05,154.93 548.65,154.47 549.26,154.02 549.86,153.56 550.47,153.11 551.07,152.66 551.67,152.22 552.28,151.77 552.88,151.33 553.49,150.88 554.09,150.44 554.70,150.01 555.30,149.57 555.91,149.13 556.51,148.70 557.12,148.27 557.72,147.84 558.32,147.41 558.93,146.99 559.53,146.56 560.14,146.14 560.74,145.72 561.35,145.30 561.95,144.88 562.56,144.47 563.16,144.06 563.77,143.65 564.37,143.24 564.98,142.83 565.58,142.42 566.18,142.02 566.79,141.62 567.39,141.22 568.00,140.82 568.60,140.42 569.21,140.02 569.81,139.63 570.42,139.24 571.02,138.85 571.63,138.46 572.23,138.08 572.84,137.69 573.44,137.31 574.04,136.93 574.65,136.55 575.25,136.17 575.86,135.80 576.46,135.43 577.07,135.05 577.67,134.68 578.28,134.32 578.88,133.95 579.49,133.59 580.09,133.22 580.70,132.86 581.30,132.50 581.90,132.15 582.51,131.79 583.11,131.44 583.72,131.09 584.32,130.74 584.93,130.39 585.53,130.04 586.14,129.70 586.74,129.36 587.35,129.01 587.95,128.68 588.55,128.34 589.16,128.00 589.76,127.67 590.37,127.34 590.97,127.01 591.58,126.68 592.18,126.35 592.79,126.03 593.39,125.71 594.00,125.38 594.60,125.07 595.21,124.75 595.81,124.43 596.41,124.12 597.02,123.81 597.62,123.50 598.23,123.19 598.83,122.88 599.44,122.58 600.04,122.28 600.65,121.97 601.25,121.67 601.86,121.38 602.46,121.08 603.07,120.79 603.67,120.50 604.27,120.21 604.88,119.92 605.48,119.63 606.09,119.35 606.69,119.06 607.30,118.78 607.90,118.50 608.51,118.23 609.11,117.95 609.72,117.68 610.32,117.40 610.92,117.13 611.53,116.86 612.13,116.60 612.74,116.33 613.34,116.07 613.95,115.81 614.55,115.55 615.16,115.29 615.76,115.04 616.37,114.78 616.97,114.53 617.58,114.28 618.18,114.03 618.78,113.78 619.39,113.54 619.99,113.30 620.60,113.05 621.20,112.82 621.81,112.58 622.41,112.34 623.02,112.11 623.62,111.88 624.23,111.64 624.83,111.42 625.44,111.19 626.04,110.96 626.64,110.74 627.25,110.52 627.85,110.30 628.46,110.08 629.06,109.87 629.67,109.65 630.27,109.44 630.88,109.23 631.48,109.02 632.09,108.81 632.69,108.61 633.29,108.40 633.90,108.20 634.50,108.00 635.11,107.81 635.71,107.61 636.32,107.41 636.92,107.22 637.53,107.03 638.13,106.84 638.74,106.66 639.34,106.47 639.95,106.29 640.55,106.10 641.15,105.93 641.76,105.75 642.36,105.57 642.97,105.40 643.57,105.22 644.18,105.05 644.78,104.88 645.39,104.72 645.99,104.55 646.60,104.39 647.20,104.23 647.81,104.07 648.41,103.91 649.01,103.75 649.62,103.60 650.22,103.44 650.83,103.29 651.43,103.14 652.04,103.00 652.64,102.85 653.25,102.71 653.85,102.57 654.46,102.43 655.06,102.29 655.66,102.15 656.27,102.02 656.87,101.88 657.48,101.75 658.08,101.62 658.69,101.50 659.29,101.37 659.90,101.25 660.50,101.12 661.11,101.00 661.71,100.89 662.32,100.77 662.92,100.65 663.52,100.54 664.13,100.43 664.73,100.32 665.34,100.21 665.94,100.11 666.55,100.00 667.15,99.90 667.76,99.80 668.36,99.70 668.97,99.61 669.57,99.51 670.18,99.42 670.78,99.33 671.38,99.24 671.99,99.15 672.59,99.06 673.20,98.98 673.80,98.90 674.41,98.82 675.01,98.74 675.62,98.66 676.22,98.59 676.83,98.51 677.43,98.44 678.03,98.37 678.64,98.31 679.24,98.24 679.85,98.18 680.45,98.11 681.06,98.05 681.66,97.99 682.27,97.94 682.87,97.88 683.48,97.83 684.08,97.78 684.69,97.73 685.29,97.68 685.89,97.63 686.50,97.59 687.10,97.55 687.71,97.51 688.31,97.47 688.92,97.43 689.52,97.39 690.13,97.36 690.73,97.33 691.34,97.30 691.94,97.27 692.55,97.25 693.15,97.22 693.75,97.20 694.36,97.18 694.96,97.16 695.57,97.14 696.17,97.13 696.78,97.11 697.38,97.10 697.99,97.09 698.59,97.08 699.20,97.08 699.80,97.07 700.40,97.07 701.01,97.07 701.61,97.07 702.22,97.07 702.82,97.08 703.43,97.08 704.03,97.09 704.64,97.10 705.24,97.11 705.85,97.13 706.45,97.14 707.06,97.16 707.66,97.18 708.26,97.20 708.87,97.22 709.47,97.25 710.08,97.27 710.68,97.30 711.29,97.33 711.89,97.36 712.50,97.40 713.10,97.43 713.71,97.47 714.31,97.51 714.92,97.55 715.52,97.59 716.12,97.64 716.73,97.68 717.33,97.73 717.94,97.78 718.54,97.83 719.15,97.88 719.75,97.94 720.36,98.00 720.96,98.06 721.57,98.12 "
         style="stroke-width: 1.71; stroke: #262626; stroke-linecap: butt;"
         id="polyline168" />
      <line
         x1="471.73"
         y1="179.11"
         x2="471.73"
         y2="227.08"
         style="stroke-width: 1.07; stroke: #D55E00; stroke-dasharray: 1.42,4.27; stroke-linecap: butt;"
         id="line170" />
      <line
         x1="566.01"
         y1="179.11"
         x2="566.01"
         y2="142.14"
         style="stroke-width: 1.07; stroke: #D55E00; stroke-dasharray: 1.42,4.27; stroke-linecap: butt;"
         id="line172" />
      <line
         x1="518.87"
         y1="179.11"
         x2="518.87"
         y2="134.55"
         style="stroke-width: 1.28; stroke: #009E73; stroke-linecap: butt;"
         id="line174" />
      <polygon
         points="521.00,140.41 518.87,134.55 516.73,140.41 "
         style="stroke-width: 1.28; stroke: #009E73; stroke-linecap: butt; fill: #009E73;"
         id="polygon176" />
      <line
         x1="518.87"
         y1="179.11"
         x2="518.87"
         y2="223.68"
         style="stroke-width: 1.28; stroke: #009E73; stroke-linecap: butt;"
         id="line178" />
      <polygon
         points="516.73,217.82 518.87,223.68 521.00,217.82 "
         style="stroke-width: 1.28; stroke: #009E73; stroke-linecap: butt; fill: #009E73;"
         id="polygon180" />
      <line
         x1="518.87"
         y1="179.11"
         x2="471.73"
         y2="179.11"
         style="stroke-width: 1.28; stroke: #D55E00; stroke-linecap: butt;"
         id="line182" />
      <polygon
         points="477.59,176.98 471.73,179.11 477.59,181.24 "
         style="stroke-width: 1.28; stroke: #D55E00; stroke-linecap: butt; fill: #D55E00;"
         id="polygon184" />
      <line
         x1="518.87"
         y1="179.11"
         x2="566.01"
         y2="179.11"
         style="stroke-width: 1.28; stroke: #D55E00; stroke-linecap: butt;"
         id="line186" />
      <polygon
         points="560.15,181.24 566.01,179.11 560.15,176.98 "
         style="stroke-width: 1.28; stroke: #D55E00; stroke-linecap: butt; fill: #D55E00;"
         id="polygon188" />
      <circle
         cx="518.87"
         cy="179.11"
         r="3.77"
         style="stroke-width: 1.13; stroke: #262626; fill: #FFFFFF;"
         id="circle190" />
      <text
         x="410.44"
         y="59.20"
         style="font-size: 12.00px; font-style: italic;fill: #595959; font-family: &quot;Times New Roman&quot;;"
         textLength="76.33px"
         lengthAdjust="spacingAndGlyphs"
         id="text192">High saturation</text>
      <text
         x="712.14"
         y="284.99"
         text-anchor="end"
         style="font-size: 12.00px; font-style: italic;fill: #595959; font-family: &quot;Times New Roman&quot;;"
         textLength="73.00px"
         lengthAdjust="spacingAndGlyphs"
         id="text194">Low saturation</text>
      <text
         x="531.13"
         y="302.82"
         text-anchor="middle"
         style="font-size: 12.00px; font-style: italic;fill: #595959; font-family: &quot;Times New Roman&quot;;"
         textLength="167.89px"
         lengthAdjust="spacingAndGlyphs"
         id="text196">anemone sizes used here (8-47 cm)</text>
      <text
         x="533.01"
         y="129.61"
         style="font-size: 12.00px; font-weight: bold;fill: #009E73; font-family: &quot;Times New Roman&quot;;"
         textLength="42.66px"
         lengthAdjust="spacingAndGlyphs"
         id="text198">Eviction</text>
      <text
         x="533.01"
         y="233.59"
         style="font-size: 12.00px; font-weight: bold;fill: #009E73; font-family: &quot;Times New Roman&quot;;"
         textLength="64.66px"
         lengthAdjust="spacingAndGlyphs"
         id="text200">Recruitment</text>
      <text
         x="462.30"
         y="162.29"
         text-anchor="end"
         style="font-size: 12.00px; font-weight: bold;fill: #D55E00; font-family: &quot;Times New Roman&quot;;"
         textLength="42.66px"
         lengthAdjust="spacingAndGlyphs"
         id="text202">Eviction</text>
      <text
         x="575.43"
         y="203.88"
         style="font-size: 12.00px; font-weight: bold;fill: #D55E00; font-family: &quot;Times New Roman&quot;;"
         textLength="64.66px"
         lengthAdjust="spacingAndGlyphs"
         id="text204">Recruitment</text>
    </g>
    <g
       clip-path="url(#cpMC4wMHw3MzcuMDF8MC4wMHwzODIuNjg=)"
       id="g290">
      <polyline
         points="401.02,319.64 401.02,29.97 "
         style="stroke-width: 0.85; stroke-linecap: square;"
         id="polyline208" />
      <text
         x="395.64"
         y="322.82"
         text-anchor="end"
         style="font-size: 9.60px; font-family: &quot;Times New Roman&quot;;"
         textLength="4.80px"
         lengthAdjust="spacingAndGlyphs"
         id="text210">0</text>
      <text
         x="395.64"
         y="278.25"
         text-anchor="end"
         style="font-size: 9.60px; font-family: &quot;Times New Roman&quot;;"
         textLength="9.59px"
         lengthAdjust="spacingAndGlyphs"
         id="text212">30</text>
      <text
         x="395.64"
         y="233.69"
         text-anchor="end"
         style="font-size: 9.60px; font-family: &quot;Times New Roman&quot;;"
         textLength="9.59px"
         lengthAdjust="spacingAndGlyphs"
         id="text214">60</text>
      <text
         x="395.64"
         y="189.12"
         text-anchor="end"
         style="font-size: 9.60px; font-family: &quot;Times New Roman&quot;;"
         textLength="9.59px"
         lengthAdjust="spacingAndGlyphs"
         id="text216">90</text>
      <text
         x="395.64"
         y="144.56"
         text-anchor="end"
         style="font-size: 9.60px; font-family: &quot;Times New Roman&quot;;"
         textLength="14.39px"
         lengthAdjust="spacingAndGlyphs"
         id="text218">120</text>
      <text
         x="395.64"
         y="99.99"
         text-anchor="end"
         style="font-size: 9.60px; font-family: &quot;Times New Roman&quot;;"
         textLength="14.39px"
         lengthAdjust="spacingAndGlyphs"
         id="text220">150</text>
      <text
         x="395.64"
         y="55.43"
         text-anchor="end"
         style="font-size: 9.60px; font-family: &quot;Times New Roman&quot;;"
         textLength="14.39px"
         lengthAdjust="spacingAndGlyphs"
         id="text222">180</text>
      <polyline
         points="398.03,319.64 401.02,319.64 "
         style="stroke-width: 0.85; stroke-linecap: butt;"
         id="polyline224" />
      <polyline
         points="398.03,275.08 401.02,275.08 "
         style="stroke-width: 0.85; stroke-linecap: butt;"
         id="polyline226" />
      <polyline
         points="398.03,230.51 401.02,230.51 "
         style="stroke-width: 0.85; stroke-linecap: butt;"
         id="polyline228" />
      <polyline
         points="398.03,185.95 401.02,185.95 "
         style="stroke-width: 0.85; stroke-linecap: butt;"
         id="polyline230" />
      <polyline
         points="398.03,141.38 401.02,141.38 "
         style="stroke-width: 0.85; stroke-linecap: butt;"
         id="polyline232" />
      <polyline
         points="398.03,96.82 401.02,96.82 "
         style="stroke-width: 0.85; stroke-linecap: butt;"
         id="polyline234" />
      <polyline
         points="398.03,52.25 401.02,52.25 "
         style="stroke-width: 0.85; stroke-linecap: butt;"
         id="polyline236" />
      <polyline
         points="401.02,319.64 721.57,319.64 "
         style="stroke-width: 0.85; stroke-linecap: square;"
         id="polyline238" />
      <polyline
         points="401.02,322.63 401.02,319.64 "
         style="stroke-width: 0.85; stroke-linecap: butt;"
         id="polyline240" />
      <polyline
         points="448.16,322.63 448.16,319.64 "
         style="stroke-width: 0.85; stroke-linecap: butt;"
         id="polyline242" />
      <polyline
         points="495.30,322.63 495.30,319.64 "
         style="stroke-width: 0.85; stroke-linecap: butt;"
         id="polyline244" />
      <polyline
         points="542.44,322.63 542.44,319.64 "
         style="stroke-width: 0.85; stroke-linecap: butt;"
         id="polyline246" />
      <polyline
         points="589.58,322.63 589.58,319.64 "
         style="stroke-width: 0.85; stroke-linecap: butt;"
         id="polyline248" />
      <polyline
         points="636.71,322.63 636.71,319.64 "
         style="stroke-width: 0.85; stroke-linecap: butt;"
         id="polyline250" />
      <polyline
         points="683.85,322.63 683.85,319.64 "
         style="stroke-width: 0.85; stroke-linecap: butt;"
         id="polyline252" />
      <text
         x="401.02"
         y="331.37"
         text-anchor="middle"
         style="font-size: 9.60px; font-family: &quot;Times New Roman&quot;;"
         textLength="4.80px"
         lengthAdjust="spacingAndGlyphs"
         id="text254">0</text>
      <text
         x="448.16"
         y="331.37"
         text-anchor="middle"
         style="font-size: 9.60px; font-family: &quot;Times New Roman&quot;;"
         textLength="9.59px"
         lengthAdjust="spacingAndGlyphs"
         id="text256">10</text>
      <text
         x="495.30"
         y="331.37"
         text-anchor="middle"
         style="font-size: 9.60px; font-family: &quot;Times New Roman&quot;;"
         textLength="9.59px"
         lengthAdjust="spacingAndGlyphs"
         id="text258">20</text>
      <text
         x="542.44"
         y="331.37"
         text-anchor="middle"
         style="font-size: 9.60px; font-family: &quot;Times New Roman&quot;;"
         textLength="9.59px"
         lengthAdjust="spacingAndGlyphs"
         id="text260">30</text>
      <text
         x="589.58"
         y="331.37"
         text-anchor="middle"
         style="font-size: 9.60px; font-family: &quot;Times New Roman&quot;;"
         textLength="9.59px"
         lengthAdjust="spacingAndGlyphs"
         id="text262">40</text>
      <text
         x="636.71"
         y="331.37"
         text-anchor="middle"
         style="font-size: 9.60px; font-family: &quot;Times New Roman&quot;;"
         textLength="9.59px"
         lengthAdjust="spacingAndGlyphs"
         id="text264">50</text>
      <text
         x="683.85"
         y="331.37"
         text-anchor="middle"
         style="font-size: 9.60px; font-family: &quot;Times New Roman&quot;;"
         textLength="9.59px"
         lengthAdjust="spacingAndGlyphs"
         id="text266">60</text>
      <text
         x="383.16"
         y="344.37"
         text-anchor="middle"
         style="font-size: 12.00px; font-family: &quot;Times New Roman&quot;;"
         textLength="144.27px"
         lengthAdjust="spacingAndGlyphs"
         id="text268">Mean anemone diameter (cm)</text>
      <text
         x="401.02"
         y="19.41"
         style="font-size: 12.00px; font-weight: bold; font-family: &quot;Times New Roman&quot;;"
         textLength="156.69px"
         lengthAdjust="spacingAndGlyphs"
         id="text270">B: <tspan
   style="-inkscape-font-specification:'Times New Roman, Normal';font-family:'Times New Roman';font-weight:normal;font-style:normal;font-stretch:normal;font-variant:normal;font-size:12.00000016px;text-anchor:start;text-align:start;writing-mode:lr;font-variant-ligatures:normal;font-variant-caps:normal;font-variant-numeric:normal;font-feature-settings:normal"
   id="tspan306">small anemones (this study)</tspan>
</text>
      <rect
         x="250.78"
         y="357.93"
         width="264.75"
         height="13.29"
         style="stroke-width: 1.16; stroke: none; fill: #FFFFFF;"
         id="rect272" />
      <rect
         x="250.78"
         y="353.94"
         width="15.84"
         height="17.28"
         style="stroke-width: 1.16; stroke: none; fill: #FFFFFF;"
         id="rect274" />
      <line
         x1="252.37"
         y1="362.58"
         x2="265.04"
         y2="362.58"
         style="stroke-width: 1.28; stroke: #009E73; stroke-linecap: butt;"
         id="line276" />
      <polygon
         points="259.18,364.71 265.04,362.58 259.18,360.45 "
         style="stroke-width: 1.28; stroke: #009E73; stroke-linecap: butt; fill: #009E73;"
         id="polygon278" />
      <rect
         x="363.11"
         y="353.94"
         width="15.84"
         height="17.28"
         style="stroke-width: 1.16; stroke: none; fill: #FFFFFF;"
         id="rect280" />
      <line
         x1="364.70"
         y1="362.58"
         x2="377.37"
         y2="362.58"
         style="stroke-width: 1.28; stroke: #D55E00; stroke-linecap: butt;"
         id="line282" />
      <polygon
         points="371.51,364.71 377.37,362.58 371.51,360.45 "
         style="stroke-width: 1.28; stroke: #D55E00; stroke-linecap: butt; fill: #D55E00;"
         id="polygon284" />
      <text
         x="272.60"
         y="366.55"
         style="font-size: 12.00px; font-family: &quot;Times New Roman&quot;;"
         textLength="84.53px"
         lengthAdjust="spacingAndGlyphs"
         id="text286">GSL manipulated</text>
      <text
         x="384.93"
         y="366.55"
         style="font-size: 12.00px; font-family: &quot;Times New Roman&quot;;"
         textLength="130.61px"
         lengthAdjust="spacingAndGlyphs"
         id="text288">Anemone size manipulated</text>
    </g>
  </g>
</svg>
